<svg xmlns="http://www.w3.org/2000/svg" xmlns:xlink="http://www.w3.org/1999/xlink" width="500" zoomAndPan="magnify" viewBox="0 0 375 374.999991" height="500" preserveAspectRatio="xMidYMid meet" version="1.0"><defs><clipPath id="d40e3f3c93"><path d="M 4.234375 116.492188 L 350.753906 116.492188 L 350.753906 350.214844 L 4.234375 350.214844 Z M 4.234375 116.492188 " clip-rule="nonzero"/></clipPath><clipPath id="62e38deb89"><path d="M 4.234375 25 L 350 25 L 350 209 L 4.234375 209 Z M 4.234375 25 " clip-rule="nonzero"/></clipPath><clipPath id="853813a0d2"><path d="M 248.734375 206 L 370.972656 206 L 370.972656 342.53125 L 248.734375 342.53125 Z M 248.734375 206 " clip-rule="nonzero"/></clipPath></defs><g clip-path="url(#d40e3f3c93)"><path fill="#bee6dd" d="M 4.699219 116.953125 C 4.699219 116.953125 -8.785156 261.386719 109.785156 338.148438 C 109.785156 338.148438 145.164062 350.214844 177.195312 350.214844 C 210.796875 350.214844 244.519531 338.394531 244.519531 338.394531 C 363.089844 261.632812 349.605469 117.195312 349.605469 117.195312 " fill-opacity="1" fill-rule="nonzero"/></g><g clip-path="url(#62e38deb89)"><path fill="#d4f0e7" d="M 349.695312 116.953125 C 349.695312 167.730469 272.464844 208.890625 177.195312 208.890625 C 81.929688 208.890625 4.699219 167.730469 4.699219 116.953125 C 4.699219 66.179688 81.929688 25.015625 177.195312 25.015625 C 272.464844 25.015625 349.695312 66.179688 349.695312 116.953125 " fill-opacity="1" fill-rule="nonzero"/></g><path fill="#c5782d" d="M 342.433594 113.085938 C 342.433594 161.726562 268.453125 201.15625 177.195312 201.15625 C 85.933594 201.15625 11.953125 161.726562 11.953125 113.085938 C 11.953125 64.445312 85.933594 25.015625 177.195312 25.015625 C 268.453125 25.015625 342.433594 64.445312 342.433594 113.085938 " fill-opacity="1" fill-rule="nonzero"/><path fill="#a2cec4" d="M 248.992188 335.414062 C 248.992188 335.414062 241.351562 332.253906 245.75 326.144531 C 250.152344 320.03125 265.066406 306.09375 270.445312 307.070312 C 275.828125 308.050781 340.6875 331.148438 339.917969 288.058594 C 339.148438 244.96875 360.664062 300.714844 351.125 317.828125 C 341.59375 334.945312 291.105469 347.382812 248.992188 335.414062 " fill-opacity="1" fill-rule="nonzero"/><path fill="#fbe5c5" d="M 94.835938 71.207031 C 92.085938 73.117188 89.457031 75.316406 86.921875 77.589844 C 84.40625 79.878906 81.933594 82.226562 79.632812 84.730469 C 77.304688 87.207031 75.121094 89.796875 73.027344 92.433594 C 71.011719 95.128906 69.0625 97.859375 67.363281 100.707031 L 66.085938 102.84375 L 64.953125 105.039062 C 64.152344 106.484375 63.558594 108 62.914062 109.496094 C 62.257812 110.988281 61.828125 112.535156 61.261719 114.042969 C 60.898438 115.59375 60.402344 117.125 60.167969 118.683594 C 59.101562 124.898438 59.5625 131.183594 61.804688 136.976562 C 62.464844 138.386719 63.117188 139.804688 63.824219 141.199219 C 64.6875 142.523438 65.492188 143.878906 66.386719 145.191406 L 69.359375 148.980469 L 72.761719 152.496094 C 77.597656 156.933594 82.929688 161.046875 88.773438 164.515625 C 100.320312 171.730469 113.15625 177.105469 126.027344 182.589844 L 126.046875 182.597656 C 126.480469 182.78125 126.683594 183.289062 126.496094 183.71875 C 126.332031 184.101562 125.921875 184.304688 125.53125 184.222656 C 122.09375 183.488281 118.65625 182.691406 115.222656 181.871094 C 111.820312 180.945312 108.4375 179.902344 105.054688 178.851562 C 101.703125 177.710938 98.375 176.441406 95.046875 175.167969 L 90.167969 172.953125 C 88.546875 172.195312 86.886719 171.527344 85.320312 170.625 L 80.589844 168 C 78.996094 167.152344 77.53125 166.050781 75.992188 165.082031 C 74.46875 164.085938 72.929688 163.105469 71.527344 161.902344 C 70.113281 160.71875 68.621094 159.648438 67.277344 158.363281 C 61.746094 153.464844 56.921875 147.296875 54.039062 140.054688 C 53.460938 138.195312 52.710938 136.382812 52.308594 134.472656 C 51.96875 132.550781 51.441406 130.648438 51.40625 128.691406 L 51.226562 125.773438 C 51.25 124.800781 51.328125 123.835938 51.375 122.867188 C 51.414062 120.917969 51.820312 119.039062 52.132812 117.144531 C 53.566406 109.578125 57.015625 102.792969 61.039062 96.6875 C 65.082031 90.554688 70 85.175781 75.3125 80.332031 C 77.96875 77.910156 80.742188 75.628906 83.664062 73.53125 C 86.558594 71.410156 89.589844 69.480469 92.851562 67.816406 C 93.820312 67.324219 95.007812 67.707031 95.5 68.675781 C 95.953125 69.566406 95.667969 70.636719 94.867188 71.1875 L 94.835938 71.207031 " fill-opacity="1" fill-rule="nonzero"/><path fill="#fbe5c5" d="M 131.878906 83.371094 L 127.832031 83.421875 C 126.492188 83.515625 125.152344 83.53125 123.8125 83.683594 C 121.144531 83.902344 118.484375 84.242188 115.863281 84.753906 C 110.628906 85.777344 105.488281 87.257812 100.648438 89.40625 C 95.796875 91.519531 91.261719 94.304688 87.253906 97.726562 C 86.296875 98.628906 85.253906 99.449219 84.363281 100.425781 C 83.5 101.414062 82.550781 102.351562 81.738281 103.390625 C 80.949219 104.449219 80.097656 105.476562 79.335938 106.570312 C 78.652344 107.707031 77.941406 108.835938 77.214844 109.964844 L 77.164062 110.046875 C 76.910156 110.441406 76.382812 110.554688 75.988281 110.300781 C 75.632812 110.066406 75.503906 109.613281 75.671875 109.234375 C 76.242188 107.96875 76.832031 106.695312 77.453125 105.429688 C 78.125 104.203125 78.902344 103.03125 79.632812 101.820312 C 80.417969 100.648438 81.363281 99.597656 82.222656 98.476562 C 83.109375 97.375 84.160156 96.425781 85.128906 95.390625 C 89.203125 91.457031 94.066406 88.402344 99.207031 86.128906 C 104.371094 83.886719 109.824219 82.378906 115.367188 81.65625 C 118.136719 81.296875 120.921875 81.101562 123.703125 81.070312 C 126.492188 81.101562 129.273438 81.269531 132.019531 81.671875 C 132.484375 81.734375 132.808594 82.171875 132.738281 82.640625 C 132.679688 83.058594 132.316406 83.363281 131.90625 83.367188 L 131.878906 83.371094 " fill-opacity="1" fill-rule="nonzero"/><path fill="#fbe5c5" d="M 100.835938 100.582031 C 98.296875 104.09375 95.832031 107.433594 93.808594 111.003906 C 91.742188 114.53125 90.140625 118.234375 89.21875 122.035156 C 88.308594 125.832031 88.195312 129.730469 88.886719 133.535156 C 89.628906 137.335938 91.273438 140.96875 93.410156 144.359375 C 95.527344 147.777344 98.296875 150.839844 101.246094 153.730469 C 104.15625 156.675781 107.480469 159.246094 110.824219 161.792969 C 117.667969 166.699219 125.003906 171.042969 132.542969 175.066406 L 132.550781 175.070312 C 133.230469 175.433594 133.488281 176.277344 133.128906 176.957031 C 132.785156 177.601562 132.007812 177.863281 131.351562 177.589844 C 123.382812 174.222656 115.558594 170.363281 108.222656 165.550781 C 100.972656 160.671875 93.910156 155.03125 88.75 147.410156 C 86.191406 143.625 84.195312 139.3125 83.207031 134.683594 C 82.242188 130.046875 82.402344 125.164062 83.558594 120.625 C 85.933594 111.472656 91.90625 104.148438 98.078125 98.238281 L 98.109375 98.207031 C 98.835938 97.511719 99.984375 97.535156 100.679688 98.261719 C 101.292969 98.902344 101.34375 99.882812 100.835938 100.582031 " fill-opacity="1" fill-rule="nonzero"/><path fill="#fbe5c5" d="M 110.121094 107.785156 C 106.945312 113.753906 104.1875 119.402344 103.796875 125.394531 C 103.421875 131.324219 105.386719 137.3125 108.949219 142.5625 C 109.320312 143.25 109.832031 143.875 110.328125 144.5 L 111.808594 146.394531 C 112.734375 147.699219 113.90625 148.839844 115.03125 150.011719 C 117.1875 152.445312 119.746094 154.535156 122.214844 156.714844 C 124.726562 158.847656 127.464844 160.746094 130.085938 162.78125 L 138.425781 168.304688 L 138.519531 168.367188 C 139.464844 168.992188 139.71875 170.261719 139.09375 171.207031 C 138.484375 172.125 137.257812 172.390625 136.324219 171.824219 L 127.566406 166.5 C 124.769531 164.507812 121.875 162.65625 119.15625 160.53125 C 116.476562 158.347656 113.714844 156.261719 111.269531 153.730469 C 110.011719 152.515625 108.714844 151.339844 107.621094 149.933594 L 105.902344 147.902344 C 105.324219 147.226562 104.738281 146.5625 104.269531 145.785156 L 102.773438 143.53125 C 102.292969 142.761719 101.734375 142.058594 101.371094 141.203125 L 100.164062 138.730469 L 99.566406 137.484375 C 99.398438 137.058594 99.269531 136.601562 99.125 136.164062 L 98.273438 133.492188 C 97.960938 132.613281 97.917969 131.652344 97.730469 130.730469 C 97.617188 129.796875 97.347656 128.875 97.375 127.929688 L 97.324219 125.089844 C 97.511719 121.34375 98.1875 117.59375 99.457031 114.207031 C 100.652344 110.789062 102.167969 107.578125 103.601562 104.5625 L 103.625 104.519531 C 104.484375 102.703125 106.652344 101.929688 108.472656 102.792969 C 110.28125 103.65625 111.054688 105.828125 110.191406 107.640625 C 110.167969 107.683594 110.140625 107.742188 110.121094 107.785156 " fill-opacity="1" fill-rule="nonzero"/><path fill="#fbe5c5" d="M 118.9375 113.085938 C 126.527344 113.078125 123.390625 132.152344 126.769531 139.261719 C 132.625 151.589844 149.480469 157.046875 147.734375 159.898438 C 146.03125 162.660156 130.605469 156.46875 120.980469 145.378906 C 111.355469 134.285156 110.527344 113.089844 118.9375 113.085938 " fill-opacity="1" fill-rule="nonzero"/><path fill="#fbe5c5" d="M 130.507812 109.601562 C 133.125 109.402344 134.527344 128.941406 149.199219 138.117188 C 154.785156 141.613281 159.089844 146.289062 155.570312 151.988281 C 152.050781 157.6875 136.652344 138.742188 131.945312 130.027344 C 127.238281 121.308594 125.726562 109.964844 130.507812 109.601562 " fill-opacity="1" fill-rule="nonzero"/><path fill="#fbe5c5" d="M 141.210938 99.410156 C 146.144531 99.296875 142.339844 111.75 150.035156 118.21875 C 156.703125 123.820312 167.605469 129.101562 168.773438 136.816406 C 170.179688 146.097656 163.457031 153.921875 163.457031 153.921875 C 163.457031 153.921875 165.621094 139.417969 152.949219 130.753906 C 137.375 120.105469 133.144531 99.59375 141.210938 99.410156 " fill-opacity="1" fill-rule="nonzero"/><path fill="#fbe5c5" d="M 155.886719 94.398438 C 160.804688 94.125 156.84375 104.289062 164.988281 111.019531 C 169.980469 115.144531 174.003906 121.085938 171.320312 131.992188 C 169.785156 123.824219 166.03125 119.4375 158.921875 113.183594 C 150.382812 105.667969 151.140625 94.664062 155.886719 94.398438 " fill-opacity="1" fill-rule="nonzero"/><path fill="#fbe5c5" d="M 162.28125 83.082031 C 167.394531 83.03125 165.800781 94.550781 173.832031 100.355469 C 182.976562 106.96875 183.453125 113.191406 179.726562 120.683594 C 177.710938 111.371094 173.6875 106.34375 167.625 101.855469 C 159.648438 95.953125 157.015625 83.132812 162.28125 83.082031 " fill-opacity="1" fill-rule="nonzero"/><path fill="#fbe5c5" d="M 168.96875 77.085938 C 172.136719 74.421875 196.398438 95.792969 189.792969 108.617188 C 188.53125 95.082031 161.917969 83.023438 168.96875 77.085938 " fill-opacity="1" fill-rule="nonzero"/><path fill="#fbe5c5" d="M 194.84375 96.441406 C 194.84375 96.441406 201.578125 88.925781 195.492188 80.769531 C 189.40625 72.609375 182.542969 67.554688 180.207031 69.632812 C 177.878906 71.703125 197.175781 81.671875 194.84375 96.441406 " fill-opacity="1" fill-rule="nonzero"/><path fill="#fbe5c5" d="M 204.96875 85.902344 C 210.273438 79.191406 204.511719 72.371094 200.257812 69.164062 C 193.542969 64.105469 198.25 57.746094 195.191406 56.089844 C 192.125 54.441406 188.003906 66.816406 196.132812 73.0625 C 204.265625 79.304688 204.96875 85.902344 204.96875 85.902344 " fill-opacity="1" fill-rule="nonzero"/><path fill="#fbe5c5" d="M 207.097656 70.449219 C 195.367188 62.804688 206.617188 51.679688 211.511719 53.890625 C 219.066406 57.292969 205.335938 63.941406 207.097656 70.449219 " fill-opacity="1" fill-rule="nonzero"/><path fill="#fbe5c5" d="M 210.511719 80.363281 C 210.511719 80.363281 226.472656 50.085938 240.550781 56.960938 C 254.628906 63.839844 210.511719 80.363281 210.511719 80.363281 " fill-opacity="1" fill-rule="nonzero"/><path fill="#fbe5c5" d="M 239.597656 152.203125 C 234.980469 157.539062 228.683594 160.84375 222.410156 163.492188 C 216.070312 166.113281 209.457031 167.875 202.804688 169.328125 C 196.128906 170.683594 189.363281 171.59375 182.5625 171.910156 C 175.769531 172.222656 168.914062 172.132812 162.167969 170.910156 C 161.707031 170.824219 161.398438 170.382812 161.484375 169.917969 C 161.558594 169.5 161.929688 169.207031 162.34375 169.21875 L 162.394531 169.21875 C 164.066406 169.261719 165.714844 169.402344 167.375 169.417969 C 169.046875 169.394531 170.703125 169.46875 172.367188 169.363281 C 175.695312 169.292969 179.019531 169.078125 182.335938 168.761719 C 188.964844 168.125 195.570312 167.175781 202.089844 165.820312 C 208.621094 164.550781 215.050781 162.804688 221.269531 160.566406 C 222.832031 160.015625 224.386719 159.445312 225.875 158.746094 L 228.140625 157.75 L 230.308594 156.597656 C 233.292969 155.171875 235.878906 153.195312 238.335938 151.0625 L 238.398438 151.003906 C 238.753906 150.699219 239.292969 150.738281 239.597656 151.089844 C 239.878906 151.414062 239.875 151.890625 239.597656 152.203125 " fill-opacity="1" fill-rule="nonzero"/><path fill="#fbe5c5" d="M 231.789062 121.757812 C 228.960938 116.757812 213.640625 130.433594 201.90625 126.667969 C 194.714844 124.359375 187.886719 127.238281 178.867188 136.742188 C 187.851562 133.109375 192.980469 130.945312 203.597656 133.988281 C 216.351562 137.644531 234.515625 126.589844 231.789062 121.757812 " fill-opacity="1" fill-rule="nonzero"/><path fill="#fbe5c5" d="M 242.6875 96.75 C 239.191406 92.113281 227.476562 104.339844 216.6875 101.136719 C 204.402344 97.492188 198.472656 101.378906 194.3125 109.925781 C 204.085938 105.285156 211.222656 104.175781 219.464844 106.515625 C 230.300781 109.597656 246.292969 101.523438 242.6875 96.75 " fill-opacity="1" fill-rule="nonzero"/><path fill="#fbe5c5" d="M 241.949219 109.601562 C 241.875 105.460938 208.390625 118.160156 185.164062 121.277344 C 199.058594 123.3125 242.113281 118.816406 241.949219 109.601562 " fill-opacity="1" fill-rule="nonzero"/><path fill="#fbe5c5" d="M 208.390625 87.691406 C 210.703125 79.453125 219.605469 80.101562 224.703125 81.65625 C 232.742188 84.113281 235.113281 76.558594 238.25 78.066406 C 241.386719 79.574219 233.804688 90.1875 223.972656 87.285156 C 214.144531 84.382812 208.390625 87.691406 208.390625 87.691406 " fill-opacity="1" fill-rule="nonzero"/><path fill="#fbe5c5" d="M 202.753906 96.441406 C 206.578125 89.089844 211.554688 89.148438 219.855469 90.648438 C 230.664062 92.601562 239.488281 86.261719 241.769531 88.867188 C 244.050781 91.476562 224.234375 98.273438 202.753906 96.441406 " fill-opacity="1" fill-rule="nonzero"/><path fill="#fbe5c5" d="M 170.726562 149.964844 C 178.867188 136.742188 201.085938 139.878906 212.378906 139.960938 C 230.023438 140.09375 240.496094 124.25 246.460938 126.460938 C 252.421875 128.671875 237.238281 145.535156 211.738281 145.710938 C 191.476562 145.851562 181.476562 143.78125 170.726562 149.964844 " fill-opacity="1" fill-rule="nonzero"/><path fill="#fbe5c5" d="M 156.410156 164.757812 C 159.5625 162.78125 162.847656 160.945312 166.410156 159.65625 C 169.957031 158.339844 173.722656 157.578125 177.480469 157.222656 C 185.03125 156.507812 192.324219 157.414062 199.351562 156.339844 C 206.371094 155.367188 213.113281 152.890625 219.777344 150 C 226.441406 147.144531 232.992188 143.875 239.464844 140.539062 L 239.484375 140.523438 C 240.019531 140.25 240.675781 140.457031 240.945312 140.992188 C 241.203125 141.484375 241.042969 142.082031 240.589844 142.390625 C 234.445312 146.546875 227.988281 150.132812 221.28125 153.34375 C 214.601562 156.496094 207.402344 159.140625 199.820312 160.015625 C 192.242188 160.984375 184.796875 160.023438 177.699219 160.316406 C 174.136719 160.472656 170.644531 161.097656 167.21875 162.078125 C 163.777344 163.039062 160.535156 164.628906 157.28125 166.226562 L 157.238281 166.242188 C 156.816406 166.453125 156.304688 166.277344 156.097656 165.855469 C 155.90625 165.460938 156.046875 164.984375 156.410156 164.757812 " fill-opacity="1" fill-rule="nonzero"/><path fill="#fbe5c5" d="M 139.664062 184.890625 C 139.753906 181.65625 157.996094 176.242188 190.925781 176.28125 C 223.679688 176.328125 256.621094 149.59375 261.539062 151.632812 C 266.453125 153.675781 241.949219 179.726562 194.3125 181.472656 C 160.640625 182.703125 139.59375 187.324219 139.664062 184.890625 " fill-opacity="1" fill-rule="nonzero"/><path fill="#fbe5c5" d="M 154.839844 186.96875 C 169.96875 187.359375 185.183594 186.835938 200.230469 185.398438 C 207.753906 184.636719 215.25 183.664062 222.636719 182.230469 C 230.019531 180.816406 237.316406 178.984375 244.265625 176.414062 C 247.710938 175.082031 251.117188 173.652344 254.253906 171.847656 C 257.367188 170.070312 260.359375 167.925781 263.082031 165.570312 C 268.539062 160.878906 272.863281 155.003906 274.800781 148.449219 C 276.710938 141.90625 276.078125 134.832031 273.195312 128.644531 C 270.386719 122.421875 265.550781 117.121094 259.824219 113.375 L 259.804688 113.363281 C 257.875 112.105469 257.335938 109.519531 258.597656 107.59375 C 259.855469 105.664062 262.4375 105.125 264.367188 106.386719 C 264.402344 106.410156 264.453125 106.445312 264.492188 106.472656 C 271.296875 111.296875 276.886719 117.886719 280.078125 125.679688 C 281.699219 129.554688 282.640625 133.734375 282.863281 137.960938 C 283.070312 142.191406 282.453125 146.453125 281.148438 150.445312 C 278.449219 158.457031 273.035156 165.0625 266.816406 170.03125 C 263.695312 172.535156 260.390625 174.714844 256.839844 176.605469 C 253.316406 178.484375 249.640625 179.886719 245.949219 181.171875 C 238.542969 183.644531 230.976562 185.28125 223.382812 186.480469 C 215.785156 187.703125 208.152344 188.441406 200.523438 188.964844 C 185.25 189.925781 169.988281 189.960938 154.726562 189.078125 C 154.144531 189.042969 153.699219 188.542969 153.734375 187.964844 C 153.769531 187.394531 154.246094 186.957031 154.8125 186.96875 L 154.839844 186.96875 " fill-opacity="1" fill-rule="nonzero"/><g clip-path="url(#853813a0d2)"><path fill="#d4f0e7" d="M 248.992188 335.414062 C 274.957031 344.421875 358.738281 347.476562 339.085938 285.230469 C 319.429688 222.988281 267.015625 241.707031 267.015625 241.707031 C 267.015625 241.707031 274.503906 189.761719 322.238281 211.289062 C 369.96875 232.816406 379.875 279.570312 363.886719 310.96875 C 338.148438 361.511719 248.992188 335.414062 248.992188 335.414062 " fill-opacity="1" fill-rule="nonzero"/></g></svg>